<svg preserveAspectRatio="none" width="100%" height="100%" overflow="visible" style="display: block;" viewBox="0 0 84.3118 13.8128" fill="none" xmlns="http://www.w3.org/2000/svg">
<g id="Group 35203">
<path id="Vector" d="M83.7904 7.47829C85.4864 10.6522 82.7587 13.9105 79.7155 13.787C76.575 13.6596 73.4253 13.739 70.28 13.7688C69.5772 13.7755 69.2706 13.5632 69.3623 12.8485C69.3901 12.6311 69.3614 12.4067 69.3644 12.1856C69.3938 9.99406 69.092 10.4418 71.1681 10.3677C73.8908 10.2705 76.6211 10.3848 79.3481 10.4062C79.5935 10.4081 79.8434 10.4227 80.0836 10.3839C80.6067 10.2996 80.9435 10.0175 80.9095 9.44215C80.8781 8.91206 80.5487 8.65875 80.0504 8.6043C79.8315 8.58038 79.6085 8.59054 79.3874 8.59051C77.2986 8.59025 75.2095 8.60912 73.1209 8.58667C70.9987 8.56385 69.1337 6.87537 68.9394 4.84608C68.7241 2.59651 70.1558 0.608674 72.3204 0.166747C72.5826 0.113206 72.8565 0.096839 73.125 0.0964922C76.418 0.0922823 79.7112 0.111535 83.0039 0.0810122C83.7146 0.0744203 83.9859 0.301947 83.9229 1.00932C83.8773 1.52139 83.8834 2.04274 83.9194 2.55623C83.9656 3.21428 83.7355 3.4671 83.041 3.45447C80.9283 3.41605 78.8144 3.43344 76.701 3.44503C75.5959 3.45109 74.4911 3.49947 73.386 3.51128C72.8024 3.51752 72.3053 3.68978 72.3042 4.34C72.3031 4.97051 72.7937 5.21931 73.3669 5.22498C75.5292 5.24635 77.6919 5.26826 79.8541 5.25051C81.5855 5.2363 82.8763 5.95755 83.7904 7.47829Z" fill="var(--fill-0, white)"/>
<path id="Vector_2" d="M6.75983 7.11623C5.51143 9.09371 4.26426 11.0096 3.0878 12.968C2.71986 13.5805 2.30275 13.7975 1.60755 13.7759C-0.252973 13.7181 0.112245 13.8982 0.0100283 12.194C-0.0626772 10.9817 0.261094 9.98633 0.944261 8.97447C2.77226 6.26697 4.49917 3.49089 6.24678 0.729739C6.52287 0.293539 6.84016 0.144236 7.36092 0.0671693C9.25734 -0.213502 10.4481 0.440527 11.4306 2.16903C12.9569 4.8545 14.8191 7.3477 16.503 9.94574C17.212 11.0397 16.8423 12.2776 16.8077 13.4626C16.8059 13.5269 16.753 13.604 16.7016 13.6504C16.2995 14.0131 14.3238 13.6919 14.0175 13.2082C12.3612 10.5928 10.7104 7.97372 9.05359 5.35853C8.89835 5.1135 8.79224 4.8265 8.4324 4.6054C7.7768 5.34774 7.34448 6.25407 6.75983 7.11623Z" fill="var(--fill-0, white)"/>
<path id="Vector_3" d="M60.4224 7.2011C59.843 6.28719 59.2917 5.41888 58.7556 4.57455C58.4807 4.58136 58.4252 4.76781 58.3392 4.90386C56.6736 7.53945 54.9867 10.1621 53.367 12.8257C52.9457 13.5185 52.503 13.8209 51.6729 13.7785C50.0624 13.6963 50.2705 13.9003 50.1785 12.3C50.1055 11.0304 50.4654 9.98948 51.1658 8.94457C52.9838 6.23242 54.7239 3.4678 56.4718 0.709316C56.755 0.262435 57.0943 0.151999 57.5994 0.069678C59.5213 -0.243484 60.6702 0.504253 61.6415 2.20605C63.1353 4.82326 64.9244 7.27292 66.6087 9.77992C67.3859 10.9368 66.9724 12.2032 67.0147 13.4287C67.0174 13.5073 66.9341 13.6115 66.8623 13.6665C66.3939 14.0256 64.5226 13.6726 64.1955 13.1582C62.9436 11.19 61.6983 9.21755 60.4224 7.2011Z" fill="var(--fill-0, white)"/>
<path id="Vector_4" d="M20.133 3.44099C19.1749 3.44105 18.2899 3.42174 17.4062 3.44772C16.8583 3.46383 16.6579 3.2347 16.6839 2.70387C16.7103 2.16468 16.6855 1.62312 16.6885 1.08264C16.6941 0.0958784 16.6958 0.0940818 17.6583 0.0940008C21.7121 0.093645 25.766 0.0943745 29.8199 0.0949913C30.3112 0.0950633 30.8034 0.114434 31.2938 0.0929291C31.7911 0.0711139 32.0158 0.26162 31.9965 0.777836C31.9716 1.44026 31.9671 2.10539 31.9977 2.76733C32.0212 3.2753 31.8418 3.46449 31.3215 3.45292C29.9954 3.42344 28.6682 3.43843 27.3415 3.43853C26.342 3.43861 26.3431 3.44061 26.344 4.47193C26.3462 7.2482 26.3285 10.0247 26.3618 12.8006C26.3705 13.5267 26.1623 13.8281 25.3996 13.7711C24.5933 13.711 23.7789 13.7458 22.9684 13.7593C22.5186 13.7667 22.3622 13.5631 22.3773 13.1302C22.4781 10.2327 22.4693 7.33524 22.3666 4.43767C22.3312 3.44091 22.3445 3.44012 21.3122 3.43899C20.9436 3.43859 20.5751 3.44011 20.133 3.44099Z" fill="var(--fill-0, white)"/>
<path id="Vector_5" d="M38.1493 0.259344C38.3521 0.690335 38.2872 1.0884 38.2877 1.47809C38.2912 3.9843 38.2844 6.49052 38.2873 8.99673C38.2886 10.1393 38.5689 10.4152 39.7393 10.4101C42.2204 10.3994 44.7016 10.3842 47.1825 10.355C47.6735 10.3492 47.9164 10.514 47.9007 11.0329C47.8799 11.7203 47.8834 12.4088 47.8939 13.0966C47.9009 13.5522 47.7268 13.7626 47.243 13.7603C44.27 13.7464 41.2958 13.7979 38.3242 13.7323C36.1347 13.684 34.3771 11.783 34.3209 9.39755C34.254 6.54895 34.3107 3.69753 34.3019 0.847368C34.3001 0.280547 34.5358 0.0470814 35.1054 0.0927425C36.104 0.17279 37.1141 -0.03456 38.1493 0.259344Z" fill="var(--fill-0, white)"/>
</g>
</svg>
