<svg preserveAspectRatio="none" width="100%" height="100%" overflow="visible" style="display: block;" viewBox="0 0 52 52" fill="none" xmlns="http://www.w3.org/2000/svg">
<path id="Union" fill-rule="evenodd" clip-rule="evenodd" d="M26 2.36364C12.946 2.36364 2.36364 12.946 2.36364 26C2.36364 33.733 6.07716 40.5986 11.8182 44.9108V39C11.8182 33.1257 16.5802 28.3636 22.4545 28.3636H29.5455C35.4198 28.3636 40.1818 33.1257 40.1818 39V44.9108C45.9228 40.5986 49.6364 33.733 49.6364 26C49.6364 12.946 39.054 2.36364 26 2.36364ZM37.8182 46.4742V39C37.8182 34.4311 34.1144 30.7273 29.5455 30.7273H22.4545C17.8856 30.7273 14.1818 34.4311 14.1818 39V46.4742C17.6584 48.4853 21.6948 49.6364 26 49.6364C30.3052 49.6364 34.3416 48.4853 37.8182 46.4742ZM0 26C0 11.6406 11.6406 0 26 0C40.3594 0 52 11.6406 52 26C52 40.3594 40.3594 52 26 52C11.6406 52 0 40.3594 0 26ZM24.8182 9.45455C22.2074 9.45455 20.0909 11.571 20.0909 14.1818V18.9091C20.0909 21.5199 22.2074 23.6364 24.8182 23.6364H27.1818C29.7926 23.6364 31.9091 21.5199 31.9091 18.9091V14.1818C31.9091 11.571 29.7926 9.45455 27.1818 9.45455H24.8182ZM24.8182 7.09091C20.902 7.09091 17.7273 10.2656 17.7273 14.1818V18.9091C17.7273 22.8253 20.902 26 24.8182 26H27.1818C31.098 26 34.2727 22.8253 34.2727 18.9091V14.1818C34.2727 10.2656 31.098 7.09091 27.1818 7.09091H24.8182Z" fill="var(--fill-0, #838385)"/>
</svg>
