<svg preserveAspectRatio="none" width="100%" height="100%" overflow="visible" style="display: block;" viewBox="0 0 14 8" fill="none" xmlns="http://www.w3.org/2000/svg">
<path id="Vector" d="M0 2.54398C0.0775047 2.71146 0.15922 2.87642 0.245147 3.03884C0.331139 3.20134 0.42121 3.36095 0.51536 3.51781C0.609577 3.6746 0.707675 3.82843 0.809786 3.97916C0.911898 4.12995 1.01776 4.27736 1.1275 4.42158C1.23718 4.56574 1.35048 4.70642 1.46746 4.84357C1.58437 4.98072 1.70478 5.11411 1.8286 5.24382C1.95242 5.37345 2.07947 5.49919 2.20974 5.62103C2.34001 5.74279 2.47331 5.86044 2.6097 5.97397C2.74602 6.0875 2.88518 6.1967 3.02716 6.30157C3.16914 6.40643 3.31369 6.50682 3.46087 6.60273C3.60798 6.69864 3.75747 6.78992 3.90932 6.87659C4.06117 6.96318 4.21513 7.04508 4.37119 7.12214C4.52725 7.1992 4.68515 7.27142 4.84497 7.33866C5.00471 7.40597 5.16611 7.46822 5.32908 7.52549C5.49205 7.58277 5.6564 7.63498 5.82207 7.682C5.98773 7.72908 6.15446 7.77097 6.32229 7.80773C6.49013 7.84442 6.65876 7.87591 6.82825 7.9022C6.99766 7.92841 7.16767 7.94943 7.33821 7.9651C7.50875 7.98077 7.67955 7.99125 7.85061 7.9963C8.02167 8.00143 8.19274 8.00121 8.3638 7.99572C8.53486 7.99024 8.7056 7.9794 8.87613 7.9633C9.04661 7.94719 9.21655 7.92581 9.38597 7.89916C9.55539 7.87252 9.72395 7.84059 9.89172 7.80347C10.0595 7.76635 10.2262 7.7241 10.3917 7.67665C10.5573 7.6292 10.7215 7.57663 10.8844 7.51899C11.0473 7.46136 11.2085 7.39867 11.3682 7.331C11.5278 7.26333 11.6856 7.19082 11.8415 7.11333C11.9974 7.03591 12.1512 6.95372 12.3029 6.86669C12.4546 6.77974 12.6039 6.68809 12.7508 6.59182C12.8978 6.49555 13.0421 6.3948 13.1839 6.28965C13.3257 6.18442 13.4646 6.07486 13.6008 5.96104C13.7369 5.84722 13.87 5.72921 14 5.60716L11.0676 3.11511C8.56085 4.93218 4.39869 4.25728 2.97972 0L0 2.54398Z" fill="var(--fill-0, #34A853)"/>
</svg>
