<svg preserveAspectRatio="none" width="100%" height="100%" overflow="visible" style="display: block;" viewBox="0 0 56 12" fill="none" xmlns="http://www.w3.org/2000/svg">
<g id="STRAVA">
<path d="M4.46445 12C1.8526 12 0.0911113 10.3066 0 7.70149H2.59667C2.6726 8.71099 3.46223 9.5251 4.46445 9.5251C5.31483 9.5251 5.90705 9.10176 5.90705 8.46676C5.90705 7.91316 5.46668 7.58752 4.87446 7.40841L3.35593 6.96879C1.7463 6.49661 0.410001 5.61737 0.410001 3.35414C0.410001 1.41655 2.06519 0 4.32779 0C6.81816 0 8.48854 1.4654 8.57965 3.72863H5.99816C5.89187 3.14247 5.29964 2.4749 4.32779 2.4749C3.58371 2.4749 3.11297 2.78426 3.11297 3.33786C3.11297 3.82632 3.47741 4.07056 4.03927 4.23338L5.55779 4.68928C7.18261 5.17775 8.61002 5.92673 8.61002 8.38535C8.61002 10.5672 6.97002 12 4.46445 12Z" fill="var(--fill-0, white)"/>
<path d="M11.781 11.886V2.62144H8.59211V0.14654H17.6121V2.62144H14.4232V11.886H11.781Z" fill="var(--fill-0, white)"/>
<path d="M18.3435 11.886V0.14654H23.3394C25.5261 0.14654 26.9535 1.57938 26.9535 3.81004C26.9535 4.96608 26.3613 6.1384 25.4654 6.78969C26.1032 7.18046 26.4676 7.7829 26.6498 8.64586L27.0143 10.3881C27.1092 10.8333 27.2505 11.3084 27.3874 11.6425C27.4257 11.7359 27.4637 11.8184 27.5002 11.886H24.5846C24.4631 11.6581 24.3265 11.2185 24.2657 10.8114L24.0228 9.18318C23.8406 7.97829 23.2028 7.45726 21.8665 7.45726H20.9857V11.886H18.3435ZM22.8839 4.98236C23.7494 4.98236 24.2506 4.54274 24.2506 3.81004C24.2506 3.06106 23.7494 2.63772 22.8839 2.63772H20.9857V4.98236H22.8839Z" fill="var(--fill-0, white)"/>
<path d="M40.3207 11.886L36.3118 0.14654H39.197L41.6873 8.07598L44.1777 0.14654H46.987L42.9781 11.886H40.3207Z" fill="var(--fill-0, white)"/>
<path d="M27.3874 11.6425C27.4257 11.7359 27.4637 11.8184 27.5002 11.886H30.1116L32.6931 3.95658L35.2746 11.886H38.1597L34.0597 0.14654H31.4023L27.3874 11.6425Z" fill="var(--fill-0, white)"/>
<path d="M45.1426 11.886L49.2426 0.14654H51.9L56 11.886H53.1148L50.5333 3.95658L47.9518 11.886H45.1426Z" fill="var(--fill-0, white)"/>
</g>
</svg>
